Coordinates
version=1
nRows=49
nColumns=12
inDegrees=yes

Units are S.I. units (second, meters, Newtons, ...)
Angles are in degrees

endheader
time	SC_y	SC_z	SC_x	AC_y	AC_z	AC_x	GH_y	GH_z	GH_yy	EL_x	PS_y
       0.0               -55.6          29.03          25.85          67.65         -1.451         -9.223          81.61          64.06         -124.5          72.27          24.85
   0.02407               -55.6          29.03          25.85          67.64         -1.451         -9.223          81.62          64.06         -124.5          72.27          24.87
   0.04814               -55.6          29.03          25.86          67.64         -1.451         -9.223          81.63          64.05         -124.5          72.27          24.89
    0.0722               -55.6          29.02          25.87          67.64         -1.451         -9.223          81.63          64.04         -124.6          72.27          24.91
   0.09627               -55.6          29.02          25.88          67.63         -1.451         -9.223          81.64          64.03         -124.6          72.27          24.93
    0.1203               -55.6          29.02          25.89          67.63         -1.451         -9.223          81.65          64.01         -124.6          72.27          24.95
    0.1444               -55.6          29.02           25.9          67.62         -1.451         -9.222          81.66           64.0         -124.6          72.28          24.97
    0.1685               -55.6          29.01          25.91          67.62         -1.451         -9.222          81.67          63.99         -124.6          72.28          24.99
    0.1925               -55.6          29.01          25.92          67.61         -1.451         -9.222          81.68          63.98         -124.6          72.28          25.02
    0.2166               -55.6          29.01          25.94           67.6         -1.451         -9.222           81.7          63.96         -124.6          72.28          25.05
    0.2407               -55.6           29.0          25.95           67.6         -1.451         -9.222          81.71          63.94         -124.6          72.28          25.07
    0.2647               -55.6           29.0          25.96          67.59         -1.451         -9.222          81.72          63.93         -124.6          72.28          25.11
    0.2888               -55.6           29.0          25.98          67.58         -1.451         -9.221          81.74          63.91         -124.6          72.28          25.14
    0.3129               -55.6          28.99           26.0          67.57         -1.452         -9.221          81.75          63.89         -124.6          72.28          25.18
    0.3369               -55.6          28.99          26.02          67.56         -1.452         -9.221          81.77          63.87         -124.6          72.28          25.22
     0.361               -55.6          28.98          26.04          67.55         -1.452         -9.221          81.79          63.84         -124.6          72.29          25.26
    0.3851              -55.61          28.98          26.06          67.54         -1.452          -9.22          81.81          63.82         -124.6          72.29          25.31
    0.4092              -55.61          28.97          26.08          67.53         -1.452          -9.22          81.83          63.79         -124.6          72.29          25.36
    0.4332              -55.61          28.96          26.11          67.52         -1.452          -9.22          81.86          63.76         -124.6          72.29          25.42
    0.4573              -55.61          28.96          26.14           67.5         -1.452          -9.22          81.89          63.73         -124.6          72.29          25.48
    0.4814              -55.61          28.95          26.17          67.49         -1.452         -9.219          81.92          63.69         -124.6           72.3          25.54
    0.5054              -55.61          28.94          26.21          67.47         -1.452         -9.219          81.95          63.65         -124.6           72.3          25.62
    0.5295              -55.61          28.93          26.24          67.45         -1.452         -9.218          81.98          63.61         -124.7           72.3           25.7
    0.5536              -55.62          28.92          26.29          67.43         -1.452         -9.218          82.02          63.56         -124.7          72.31          25.79
    0.5776              -55.62          28.91          26.33           67.4         -1.452         -9.217          82.07           63.5         -124.7          72.31          25.89
    0.6017              -55.62          28.89          26.39          67.38         -1.452         -9.217          82.12          63.44         -124.7          72.31           26.0
    0.6258              -55.62          28.88          26.45          67.35         -1.452         -9.216          82.17          63.37         -124.7          72.32          26.13
    0.6498              -55.63          28.86          26.51          67.31         -1.452         -9.215          82.24           63.3         -124.7          72.32          26.27
    0.6739              -55.63          28.84          26.59          67.28         -1.452         -9.214          82.31          63.21         -124.7          72.33          26.43
     0.698              -55.63          28.82          26.68          67.23         -1.452         -9.213          82.39          63.11         -124.8          72.34          26.61
     0.722              -55.64           28.8          26.77          67.19         -1.452         -9.212          82.48           63.0         -124.8          72.34          26.82
    0.7461              -55.64          28.77          26.89          67.13         -1.453         -9.211          82.58          62.87         -124.8          72.35          27.06
    0.7702              -55.65          28.73          27.02          67.07         -1.453         -9.209          82.71          62.72         -124.9          72.36          27.34
    0.7942              -55.65           28.7          27.17          66.99         -1.453         -9.207          82.85          62.54         -124.9          72.37          27.66
    0.8183              -55.66          28.65          27.34           66.9         -1.453         -9.205          83.01          62.34         -125.0          72.39          28.03
    0.8424              -55.67           28.6          27.55           66.8         -1.453         -9.203          83.21           62.1         -125.0           72.4          28.47
    0.8664              -55.68          28.54           27.8          66.68         -1.454           -9.2          83.44          61.82         -125.1          72.42           29.0
    0.8905               -55.7          28.46          28.09          66.53         -1.454         -9.196          83.71          61.48         -125.2          72.45          29.62
    0.9146              -55.71          28.37          28.45          66.35         -1.454         -9.192          84.05          61.07         -125.3          72.47          30.38
    0.9386              -55.73          28.26          28.89          66.13         -1.455         -9.186          84.46          60.56         -125.4          72.51          31.31
    0.9627              -55.75          28.12          29.43          65.86         -1.456          -9.18          84.96          59.94         -125.5          72.55          32.46
    0.9868              -55.78          27.95           30.1          65.53         -1.456         -9.172          85.59          59.16         -125.7           72.6          33.89
     1.011              -55.82          27.73          30.95           65.1         -1.457         -9.162          86.39          58.19         -126.0          72.67          35.69
     1.035              -55.87          27.46          32.03          64.57         -1.459         -9.149          87.39          56.95         -126.3          72.75          37.98
     1.059              -55.93          27.11          33.41          63.88          -1.46         -9.132          88.69          55.36         -126.6          72.86          40.91
     1.083              -56.01          26.66          35.18           63.0         -1.462         -9.111          90.34          53.32         -127.1          72.99          44.67
     1.107              -56.11          26.08          37.44          61.87         -1.465         -9.084          92.46          50.71         -127.7          73.17          49.47
     1.131              -56.24          25.36          40.29          60.45         -1.468         -9.049          95.12          47.44         -128.5          73.39          55.51
     1.155              -56.39          24.48          43.75          58.73         -1.473         -9.008          98.36          43.45         -129.5          73.66          62.87
